<?xml version="1.0" encoding="UTF-8" standalone="no"?>
<svg
   height="966"
   viewBox="0 0 264.58333 255.58751"
   width="1000"
   version="1.1"
   id="svg4"
   sodipodi:docname="webxnet-small1.svg"
   inkscape:version="1.2.2 (b0a8486, 2022-12-01)"
   xmlns:inkscape="http://www.inkscape.org/namespaces/inkscape"
   xmlns:sodipodi="http://sodipodi.sourceforge.net/DTD/sodipodi-0.dtd"
   xmlns="http://www.w3.org/2000/svg"
   xmlns:svg="http://www.w3.org/2000/svg">
  <defs
     id="defs8" />
  <sodipodi:namedview
     id="namedview6"
     pagecolor="#ffffff"
     bordercolor="#000000"
     borderopacity="0.25"
     inkscape:showpageshadow="2"
     inkscape:pageopacity="0.0"
     inkscape:pagecheckerboard="0"
     inkscape:deskcolor="#d1d1d1"
     showgrid="false"
     inkscape:zoom="0.54658385"
     inkscape:cx="500.38068"
     inkscape:cy="483.91477"
     inkscape:window-width="1360"
     inkscape:window-height="715"
     inkscape:window-x="0"
     inkscape:window-y="25"
     inkscape:window-maximized="0"
     inkscape:current-layer="svg4" />
  <g
     transform="matrix(0.82048601,0,0,-0.83549459,9.532814,199.93082)"
     id="g10">
    <g
       transform="scale(0.1)"
       id="g12">
      <path
         d="M 2976.13,878.121 C 2975.82,799.719 2958.24,724.488 2923.44,652.34 2888.59,580.191 2838.87,512.578 2774.18,449.449 2709.77,386.289 2632.81,328.898 2543.28,277.262 2453.36,225.969 2353.55,181.828 2243.75,144.801 2133.67,107.809 2015.98,79.2188 1890.62,58.9805 1765,39.1016 1633.91,28.9805 1497.38,28.6719 1360.9,28.9805 1229.8,39.1016 1104.18,58.9805 978.828,78.8594 861.129,107.5 751.02,144.801 641.25,181.828 541.449,225.969 451.52,277.262 361.988,328.898 285.039,386.289 220.621,449.449 155.941,512.578 106.211,580.191 71.3711,652.34 36.5586,724.488 18.9805,799.719 18.6719,878.121 c 0.3086,78.359 17.8867,153.639 52.6992,225.779 34.8399,72.15 84.5699,139.81 149.2499,202.93 64.418,62.82 141.367,120.04 230.899,171.64 89.929,51.29 189.73,95.47 299.5,132.5 110.109,37.31 227.808,65.94 353.16,85.82 125.62,19.89 256.72,30 393.2,30.32 136.53,-0.32 267.62,-10.43 393.24,-30.32 125.36,-19.88 243.05,-48.51 353.13,-85.82 109.8,-37.03 209.61,-81.21 299.53,-132.5 89.53,-51.6 166.49,-109.02 230.9,-172.14 64.69,-63.13 114.41,-130.59 149.26,-202.43 34.8,-72.14 52.38,-147.42 52.69,-225.779"
         id="path14"
         style="fill:#0f4c81;fill-opacity:1;fill-rule:evenodd;stroke:none"
         inkscape:connector-curvature="0" />
      <path
         d="m 1497.38,1708.47 c -134.65,-0.35 -263.86,-10.27 -387.61,-29.84 C 985.66,1659.02 869.379,1631.17 760.82,1595.08 652.301,1558.71 553.871,1515.35 465.551,1464.96 376.91,1414.57 300.738,1358.59 236.949,1297.03 173.199,1235.11 124.102,1168.86 89.5703,1098.28 55.0391,1028.01 37.6602,954.609 37.3008,878.121 37.6602,801.641 55.0391,728.039 89.5703,657.461 124.102,586.871 173.199,520.781 236.949,459.219 300.738,397.34 376.91,341.211 465.551,290.82 c 88.32,-50.39 186.75,-93.601 295.269,-129.691 108.559,-36.367 224.84,-64.3673 348.95,-83.9493 123.75,-19.5703 252.96,-29.5313 387.61,-29.8789 134.69,0.3476 263.91,10.3086 387.66,29.8789 124.1,19.582 240.39,47.5823 348.91,83.9493 108.55,36.09 206.99,79.301 295.31,129.691 88.63,50.391 164.8,106.52 228.59,168.399 63.75,61.562 112.85,127.652 147.38,198.242 34.54,70.309 51.92,143.828 52.27,220.66 -0.35,76.488 -17.73,150.039 -52.27,220.629 -34.53,70.31 -83.63,136.36 -147.38,198.28 -63.79,61.56 -139.96,117.54 -228.59,167.93 -88.32,50.39 -186.76,93.75 -295.31,130.12 -108.52,36.09 -224.81,63.94 -348.91,83.55 -123.75,19.57 -252.97,29.49 -387.66,29.84 M 1497.38,10 C 1364.3,10 1235.08,19.8008 1109.77,39.3711 984.41,58.6719 865.469,86.9492 752.891,124.289 640.309,161.602 536.91,207.301 442.699,261.441 347.191,316.172 266.641,376.328 201.051,441.949 135.121,507.578 85.1992,577.109 51.3281,650.469 17.4219,723.859 0.308594,799.719 0,878.121 c 0.308594,78.051 17.4219,153.789 51.3281,227.149 33.8711,73.4 83.7929,142.89 149.7229,208.56 65.59,65.62 146.14,125.93 241.648,180.97 94.531,54.1 197.922,99.85 310.192,137.15 112.578,36.99 231.519,65.31 356.879,84.88 125.31,19.3 254.53,28.95 387.61,28.95 133.13,0 262.35,-9.65 387.66,-28.95 125.35,-19.57 244.3,-48 356.87,-85.35 112.58,-37.3 215.98,-82.85 310.2,-136.68 95.51,-55.04 176.01,-115.35 241.64,-180.97 65.9,-65.67 115.86,-135.16 149.73,-208.56 33.9,-73.36 50.97,-149.098 51.32,-227.149 -0.35,-78.402 -17.42,-154.262 -51.32,-227.652 -33.87,-73.36 -83.83,-142.891 -149.73,-208.52 -65.63,-65.621 -146.13,-125.777 -241.64,-180.508 -94.22,-54.14 -197.62,-99.839 -310.2,-137.152 C 2129.34,86.9492 2010.39,58.6719 1885.04,39.3711 1759.73,20.0781 1630.51,10.3086 1497.38,10"
         id="path16"
         style="fill:#bababa;fill-opacity:1;fill-rule:evenodd;stroke:none"
         inkscape:connector-curvature="0" />
      <path
         d="m 1497.38,1647.81 c -128.12,-0.31 -251.13,-9.45 -368.98,-27.5 -118.13,-18.05 -228.869,-44.02 -332.111,-77.93 C 693.051,1508.79 599.301,1468.71 515,1422.07 430.738,1375.39 358.09,1323.47 297.148,1266.21 236.52,1208.98 189.879,1147.73 157.23,1082.42 c -33.011,-65.31 -49.609,-133.4 -49.929,-204.299 0.32,-70.902 16.918,-139.019 49.929,-204.332 32.649,-65.59 79.29,-127 139.918,-184.258 60.942,-57.23 133.59,-109.14 217.852,-155.781 84.301,-46.68 178.051,-86.801 281.289,-120.352 103.242,-33.597 213.981,-59.57 332.111,-77.929 117.85,-18.047 240.86,-27.188 368.98,-27.5 128.17,0.312 251.14,9.453 369.03,27.5 118.12,18.359 228.86,44.332 332.11,77.929 103.24,33.551 196.99,73.672 281.28,120.352 84.26,46.641 156.92,98.551 217.86,155.781 60.62,57.258 107.26,118.508 139.92,183.828 32.97,65.313 49.61,133.551 49.92,204.762 -0.31,70.899 -16.95,138.989 -49.92,204.299 -32.66,65.31 -79.3,126.56 -139.92,183.79 -60.94,57.26 -133.6,109.18 -217.86,155.86 -84.29,46.64 -178.04,86.72 -281.28,120.31 -103.25,33.91 -213.99,59.88 -332.11,77.93 -117.89,18.05 -240.86,27.19 -369.03,27.5 m 0,-1558.5209 c -129.96,0.3593 -254.68,9.8125 -374.1,28.4809 -119.41,18.32 -231.518,44.769 -336.331,79.3 -104.801,34.489 -199.801,75.739 -285,123.629 C 416.41,368.551 342.852,421.762 281.289,480.191 219.73,538.98 172.27,601.789 138.98,668.672 c -33.242,66.84 -50.0308,136.68 -50.3511,209.449 0.3203,72.777 17.1091,142.579 50.3511,209.459 33.29,66.87 80.75,129.53 142.309,187.96 61.563,58.79 135.121,111.96 220.66,159.57 85.199,47.86 180.199,89.11 285,123.6 104.813,34.53 216.921,61.13 336.331,79.76 119.42,18.36 244.14,27.66 374.1,28.01 130,-0.35 254.73,-9.65 374.14,-28.01 119.42,-18.63 231.53,-45.23 336.33,-79.76 104.81,-34.49 199.81,-75.74 285,-123.6 85.55,-47.61 159.1,-100.78 220.67,-159.57 61.56,-58.43 109.02,-121.28 142.3,-188.43 33.24,-66.84 50.04,-136.532 50.35,-208.989 -0.31,-72.769 -17.11,-142.609 -50.35,-209.449 -33.28,-66.883 -80.74,-129.692 -142.3,-188.481 -61.57,-58.429 -135.12,-111.64 -220.67,-159.492 -85.19,-47.89 -180.19,-89.14 -285,-123.629 -104.8,-34.531 -216.91,-60.98 -336.33,-79.3 C 1752.11,99.1016 1627.38,89.6484 1497.38,89.2891"
         id="path18"
         style="fill:#ffffff;fill-opacity:1;fill-rule:evenodd;stroke:none"
         inkscape:connector-curvature="0" />
      <path
         d="M 717.379,982.301 H 800.98 L 759.262,785.27 c -2.114,-9.301 -3.133,-16.329 -3.133,-21.09 0,-5.86 1.57,-10.551 4.691,-14.071 3.129,-3.429 8.16,-5.148 15.16,-5.148 9.45,0 18.508,3.277 27.18,9.84 8.75,6.64 16.762,15.39 24.07,26.25 7.379,10.82 14.098,23.129 20.149,36.879 6.019,13.832 11.172,27.968 15.473,42.34 4.257,14.378 7.539,28.359 9.847,42.031 2.379,13.629 3.59,25.777 3.59,36.41 -0.43,-0.941 -1.488,-1.84 -3.129,-2.66 -1.558,-0.742 -3.281,-1.371 -5.148,-1.871 -1.883,-0.43 -3.75,-0.75 -5.633,-0.942 -1.867,-0.117 -3.399,-0.16 -4.527,-0.16 -3.442,0 -6.481,0.863 -9.063,2.66 -2.617,1.762 -4.84,4.063 -6.719,6.871 -1.8,2.821 -3.09,5.981 -3.91,9.539 -0.859,3.512 -1.25,6.954 -1.25,10.313 0,9.059 2.86,16.559 8.602,22.5 5.816,5.937 14.918,8.898 27.34,8.898 6.949,0 12.738,-1.398 17.347,-4.211 4.68,-2.82 8.43,-6.636 11.25,-11.41 2.813,-4.687 4.84,-10.078 6.09,-16.09 1.25,-6.058 1.871,-12.269 1.871,-18.597 0,-15.539 -1.359,-32.621 -4.058,-51.25 -2.622,-18.551 -6.801,-37.262 -12.5,-56.09 -5.743,-18.871 -13.051,-37.152 -21.872,-54.852 -8.75,-17.609 -19.3,-33.281 -31.57,-47.031 -12.301,-13.668 -26.359,-24.648 -42.18,-32.969 -15.859,-8.347 -33.601,-12.5 -53.281,-12.5 -18.871,0 -34.301,3.993 -46.25,12.039 -12,8 -19.687,20.231 -23.129,36.711 -6.992,-10.539 -14.179,-18.98 -21.558,-25.308 -7.313,-6.371 -14.492,-11.332 -21.563,-14.84 -7.109,-3.441 -14.027,-5.699 -20.789,-6.883 -6.68,-1.129 -12.808,-1.719 -18.43,-1.719 -8.679,0 -16.8,1.332 -24.378,3.911 -7.5,2.699 -14.063,6.878 -19.692,12.5 -5.539,5.699 -9.922,12.89 -13.121,21.558 -3.199,8.75 -4.84,19.223 -4.84,31.41 0,5.313 0.391,11.133 1.09,17.5 0.742,6.332 1.871,13.16 3.441,20.473 l 39.372,186.09 h 83.597 L 615.98,785.27 c -1.179,-5 -1.718,-9.961 -1.718,-14.84 0,-3.36 0.226,-6.532 0.777,-9.532 0.621,-3.046 1.602,-5.75 2.973,-8.128 1.328,-2.418 3.039,-4.34 5.148,-5.782 2.192,-1.367 5,-2.027 8.442,-2.027 5.628,0 10.777,1.25 15.468,3.75 4.77,2.578 9.102,6.129 12.969,10.617 3.832,4.57 7.231,10.043 10.16,16.41 2.891,6.332 5.5,13.16 7.813,20.473 z m 443.871,-186.09 c -8.13,-13.563 -17.46,-26.801 -27.97,-39.691 -10.55,-12.809 -22.34,-24.219 -35.47,-34.219 -13.12,-10 -27.65,-18.082 -43.59,-24.223 -15.94,-6.129 -33.44,-9.219 -52.5,-9.219 -13.751,0 -26.208,1.719 -37.341,5.161 -11.18,3.519 -20.707,8.992 -28.598,16.41 -7.929,7.379 -14.019,16.871 -18.281,28.429 -4.262,11.653 -6.41,25.672 -6.41,42.039 0,11.133 1.18,23.942 3.441,38.43 2.309,14.57 5.86,29.531 10.778,44.852 4.89,15.308 11.41,30.308 19.531,45 8.129,14.761 17.89,27.968 29.379,39.531 11.562,11.641 25.043,21.008 40.471,28.117 15.51,7.07 33.16,10.633 52.97,10.633 13,0 23.63,-1.563 31.87,-4.691 8.2,-3.122 14.73,-7.258 19.53,-12.34 4.89,-5.121 8.21,-11.059 10,-17.821 1.76,-6.679 2.66,-13.589 2.66,-20.781 0,-16.789 -3.71,-32.418 -11.1,-46.867 -7.3,-14.383 -17.14,-26.992 -29.53,-37.813 -12.42,-10.75 -26.64,-19.457 -42.65,-26.097 -16.06,-6.563 -32.78,-10.43 -50.159,-11.563 -0.312,-4.297 -0.621,-8.398 -0.941,-12.34 -0.309,-3.867 -0.461,-7.468 -0.461,-10.789 0,-9.8 0.851,-17.89 2.652,-24.211 1.879,-6.367 4.529,-11.367 7.969,-15 3.52,-3.558 7.85,-6.058 12.97,-7.5 5.19,-1.367 11.33,-2.039 18.44,-2.039 11.44,0 21.87,1.493 31.25,4.539 9.37,3 18.04,7.18 26.09,12.5 8.13,5.313 15.82,11.481 23.13,18.59 7.26,7.192 14.6,14.84 22.03,22.973 z m -158.44,41.09 c 10.94,0.711 21.49,3.789 31.72,9.219 10.2,5.511 19.14,12.66 26.88,21.41 7.81,8.832 13.98,18.898 18.59,30.148 4.69,11.25 7.03,22.891 7.03,35 0,7.192 -1.05,12.891 -3.12,17.192 -2.11,4.378 -5.9,6.558 -11.41,6.558 -7.3,0 -14.49,-3.547 -21.56,-10.617 -7.11,-7.109 -13.75,-16.332 -20,-27.66 -6.25,-11.371 -11.8,-24.18 -16.56,-38.442 -4.81,-14.179 -8.68,-28.429 -11.57,-42.808 z m 201.14,249.529 85.78,11.57 -27.66,-130.47 c 5.82,3.511 11.02,6.398 15.63,8.59 4.68,2.191 8.9,3.789 12.65,4.839 3.75,1.141 7.19,1.879 10.31,2.192 3.13,0.308 6.1,0.469 8.91,0.469 10.2,0 19.45,-1.719 27.81,-5.161 8.44,-3.347 15.67,-8.98 21.72,-16.871 6.02,-7.808 10.7,-18.09 14.06,-30.777 3.32,-12.621 5,-28.051 5,-46.25 0,-11.371 -1.09,-24.063 -3.28,-38.133 -2.18,-14.058 -5.74,-28.398 -10.62,-42.969 -4.92,-14.488 -11.41,-28.668 -19.53,-42.5 -8.13,-13.75 -18.09,-26.05 -29.85,-36.871 -11.68,-10.738 -25.43,-19.379 -41.25,-25.937 -15.86,-6.442 -34.06,-9.692 -54.68,-9.692 -26.8,0 -47,6.493 -60.63,19.539 -13.55,13 -20.31,31.25 -20.31,54.68 0,5.512 0.27,11.024 0.78,16.57 0.55,5.622 1.56,11.133 3.12,16.563 z m 18.75,-301.56 c -1.18,-5 -1.72,-9.489 -1.72,-13.442 0,-17.93 10.15,-26.867 30.47,-26.867 6.25,0 12.26,2.109 18.12,6.398 5.94,4.262 11.41,9.93 16.41,17.039 5,7.071 9.53,15.352 13.59,24.84 4.14,9.571 7.7,19.571 10.63,30 3,10.512 5.31,21.25 6.87,32.192 1.56,10.929 2.34,21.48 2.34,31.718 0,6.954 -0.62,13.782 -1.87,20.461 -1.17,6.762 -3.05,12.743 -5.63,17.969 -2.5,5.32 -5.7,9.531 -9.53,12.66 -3.86,3.121 -8.43,4.692 -13.75,4.692 -2.11,0 -4.76,-0.16 -7.97,-0.469 -3.24,-0.242 -6.56,-0.781 -10,-1.723 -3.36,-0.859 -6.48,-1.949 -9.37,-3.277 -2.93,-1.25 -5.24,-2.93 -6.88,-5 z m 504.53,10.941 c -7.74,-22.422 -16.64,-40.699 -26.72,-54.852 -10.12,-14.058 -20.55,-24.961 -31.25,-32.648 -10.74,-7.742 -21.37,-12.973 -31.88,-15.781 -10.54,-2.7 -20,-4.071 -28.43,-4.071 -8.75,0 -16.84,1.879 -24.22,5.629 -7.31,3.832 -13.91,9.84 -19.85,17.973 -5.93,8.199 -11.21,18.629 -15.78,31.25 -4.49,12.687 -8.12,28.051 -10.94,46.09 l -79.84,-97.5 h -42.03 l 117.34,132.187 -9.37,65 c -1.56,9.774 -3.13,17.731 -4.69,23.91 -1.56,6.25 -3.24,11.133 -5,14.68 -1.68,3.641 -3.55,6.141 -5.62,7.5 -2.11,1.332 -4.34,2.031 -6.72,2.031 -5.75,0 -12,-2.929 -18.75,-8.75 -6.8,-5.738 -13.71,-14.488 -20.78,-26.25 -7.11,-11.679 -13.99,-26.359 -20.63,-44.058 -6.56,-17.621 -12.42,-38.403 -17.5,-62.34 h -24.37 c 3.2,14.367 6.95,28.937 11.25,43.75 4.37,14.879 9.41,29.367 15.15,43.437 5.82,14.063 12.38,27.223 19.69,39.532 7.38,12.379 15.62,23.16 24.69,32.34 9.06,9.14 19.06,16.41 30,21.718 10.93,5.391 22.89,8.121 35.93,8.121 11.57,0 21.18,-2.257 28.91,-6.711 7.81,-4.378 14.1,-9.968 18.91,-16.718 4.76,-6.68 8.32,-14.071 10.62,-22.192 2.27,-8.129 3.79,-15.859 4.53,-23.129 l 5,-44.211 c 16.45,18.321 28.75,34.102 36.88,47.34 8.12,13.321 12.65,25.391 13.59,36.25 -2.11,-0.429 -3.9,-0.738 -5.47,-0.937 -1.48,-0.231 -2.93,-0.313 -4.37,-0.313 -5.12,0 -9.38,0.821 -12.81,2.5 -3.44,1.762 -6.25,4.102 -8.44,7.032 -2.11,2.89 -3.6,6.289 -4.53,10.16 -0.94,3.941 -1.41,8.16 -1.41,12.648 0,5.082 1.02,9.422 3.13,12.973 2.18,3.629 5.03,6.599 8.59,8.909 3.63,2.38 7.85,4.1 12.66,5.15 4.88,1.02 9.88,1.57 15,1.57 5.19,0 9.88,-1.57 14.06,-4.69 4.14,-3.13 7.54,-7.19 10.15,-12.189 2.7,-5 4.73,-10.699 6.1,-17.031 1.44,-6.25 2.19,-12.622 2.19,-19.059 0,-9.063 -1.68,-18.051 -5,-26.883 -3.25,-8.859 -8.25,-18.238 -15,-28.117 -6.68,-9.813 -15.08,-20.473 -25.16,-32.031 -10.12,-11.489 -21.99,-24.532 -35.63,-39.219 l 5.47,-40.473 c 1.14,-9.488 2.7,-17.5 4.69,-24.058 1.95,-6.489 4.41,-11.68 7.34,-15.629 2.89,-3.981 6.33,-6.832 10.32,-8.59 3.94,-1.68 8.47,-2.5 13.59,-2.5 5.63,0 11.09,1.25 16.41,3.75 5.31,2.578 10.19,6.129 14.68,10.617 4.57,4.57 8.64,10.043 12.19,16.41 3.63,6.332 6.6,13.16 8.91,20.473 z m 292.61,0 c -8.12,-23.75 -16.87,-42.742 -26.25,-56.883 -9.29,-14.18 -18.71,-25 -28.28,-32.5 -9.49,-7.418 -18.83,-12.258 -27.97,-14.527 -9.18,-2.262 -17.65,-3.442 -25.46,-3.442 -12.82,0 -23.6,1.84 -32.35,5.469 -8.67,3.75 -15.62,8.684 -20.94,14.852 -5.23,6.129 -9.02,13.121 -11.4,20.929 -2.31,7.821 -3.44,15.86 -3.44,24.219 0,9.774 1.33,21.25 4.06,34.383 2.7,13.117 5.67,26.559 8.91,40.309 3.2,13.832 6.17,27.191 8.9,40 2.7,12.808 4.07,23.832 4.07,33.128 0,19.762 -6.99,29.68 -20.94,29.68 -5.23,0 -10.12,-1.398 -14.69,-4.219 -4.49,-2.808 -8.67,-6.64 -12.5,-11.398 -3.75,-4.813 -7.15,-10.473 -10.15,-17.031 -3.05,-6.489 -5.71,-13.399 -7.97,-20.782 l -39.38,-186.097 h -83.44 l 61.41,290 h 83.59 l -6.24,-30 c 6.24,6.961 12.38,12.578 18.43,16.879 6.14,4.25 12.11,7.5 17.97,9.679 5.94,2.27 11.45,3.789 16.56,4.539 5.2,0.821 10.08,1.25 14.69,1.25 9.26,0 17.85,-1.25 25.78,-3.75 7.89,-2.5 14.73,-6.41 20.47,-11.718 5.82,-5.239 10.31,-12 13.44,-20.321 3.2,-8.347 4.84,-18.238 4.84,-29.679 0,-7.739 -0.74,-16.102 -2.18,-25.16 -1.37,-8.981 -3.09,-18.122 -5.16,-27.5 -2.11,-9.301 -4.34,-18.551 -6.72,-27.809 -2.3,-9.301 -4.49,-18.199 -6.56,-26.723 -2.11,-8.437 -3.87,-16.328 -5.32,-23.59 -1.36,-7.187 -2.03,-13.558 -2.03,-19.07 0,-7.18 1.61,-13.078 4.85,-17.648 3.32,-4.5 9.41,-6.719 18.28,-6.719 6.25,0 11.72,1.168 16.4,3.59 4.77,2.5 9.07,5.98 12.82,10.469 3.75,4.57 7.18,10.039 10.31,16.41 3.13,6.332 6.17,13.281 9.22,20.781 z m 217.58,0 c -8.12,-13.563 -17.46,-26.801 -27.97,-39.691 -10.54,-12.809 -22.34,-24.219 -35.47,-34.219 -13.12,-10 -27.65,-18.082 -43.59,-24.223 -15.94,-6.129 -33.44,-9.219 -52.5,-9.219 -13.75,0 -26.21,1.719 -37.34,5.161 -11.17,3.519 -20.71,8.992 -28.6,16.41 -7.93,7.379 -14.02,16.871 -18.28,28.429 -4.26,11.653 -6.4,25.672 -6.4,42.039 0,11.133 1.17,23.942 3.43,38.43 2.31,14.57 5.86,29.531 10.78,44.852 4.89,15.308 11.41,30.308 19.54,45 8.12,14.761 17.89,27.968 29.37,39.531 11.56,11.641 25.04,21.008 40.47,28.117 15.51,7.07 33.16,10.633 52.97,10.633 13.01,0 23.63,-1.563 31.87,-4.691 8.21,-3.122 14.73,-7.258 19.53,-12.34 4.89,-5.121 8.21,-11.059 10,-17.821 1.76,-6.679 2.66,-13.589 2.66,-20.781 0,-16.789 -3.71,-32.418 -11.09,-46.867 -7.31,-14.383 -17.15,-26.992 -29.53,-37.813 -12.43,-10.75 -26.65,-19.457 -42.66,-26.097 -16.06,-6.563 -32.77,-10.43 -50.16,-11.563 -0.31,-4.297 -0.62,-8.398 -0.93,-12.34 -0.32,-3.867 -0.47,-7.468 -0.47,-10.789 0,-9.8 0.86,-17.89 2.65,-24.211 1.88,-6.367 4.53,-11.367 7.97,-15 3.52,-3.558 7.85,-6.058 12.97,-7.5 5.2,-1.367 11.33,-2.039 18.44,-2.039 11.44,0 21.87,1.493 31.25,4.539 9.37,3 18.05,7.18 26.09,12.5 8.13,5.313 15.82,11.481 23.13,18.59 7.26,7.192 14.61,14.84 22.03,22.973 z m -158.44,41.09 c 10.94,0.711 21.49,3.789 31.72,9.219 10.2,5.511 19.14,12.66 26.88,21.41 7.81,8.832 13.98,18.898 18.59,30.148 4.69,11.25 7.03,22.891 7.03,35 0,7.192 -1.05,12.891 -3.12,17.192 -2.11,4.378 -5.9,6.558 -11.41,6.558 -7.3,0 -14.49,-3.547 -21.56,-10.617 -7.11,-7.109 -13.75,-16.332 -20,-27.66 -6.25,-11.371 -11.8,-24.18 -16.56,-38.442 -4.81,-14.179 -8.67,-28.429 -11.57,-42.808 z m 176.14,121.719 h -19.22 l 4.84,23.281 h 18.91 l 17.65,80.159 85.79,11.56 c -0.94,-3.75 -1.88,-7.89 -2.82,-12.34 -0.93,-4.38 -1.87,-9.03 -2.81,-13.91 -2.11,-8.12 -4.34,-17.81 -6.72,-29.06 -2.3,-11.25 -4.8,-23.401 -7.5,-36.409 h 34.85 l -4.54,-23.281 h -34.84 l -37.03,-173.75 c -0.94,-3.872 -1.68,-7.579 -2.19,-11.09 -0.43,-3.442 -0.62,-6.571 -0.62,-9.379 0,-6.051 1.33,-11.051 4.06,-15 2.69,-3.981 8.01,-5.942 15.94,-5.942 2.07,0 4.53,0.039 7.34,0.161 2.89,0.082 5.55,0.628 7.97,1.558 -4.38,-12.5 -9.14,-22.5 -14.22,-30 -5,-7.418 -10.16,-13.078 -15.47,-17.027 -5.31,-3.981 -10.7,-6.563 -16.09,-7.813 -5.31,-1.25 -10.55,-1.879 -15.63,-1.879 -10.43,0 -19.33,1.68 -26.72,5 -7.3,3.321 -13.28,7.903 -17.96,13.75 -4.61,5.821 -7.97,12.743 -10.16,20.789 -2.19,8 -3.28,16.641 -3.28,25.93 0,10 1.17,20.32 3.44,30.942"
         id="path20"
         style="fill:#ffffff;fill-opacity:1;fill-rule:nonzero;stroke:none"
         inkscape:connector-curvature="0" />
      <path
         d="m 1649.3,440.352 h -0.32 v -7.032 h -18.43 v 88.899 h 18.43 v -37.957 h 0.32 c 4.57,6.949 11.09,10.457 19.53,10.457 7.69,0 13.63,-2.649 17.81,-7.957 4.14,-5.321 6.25,-12.582 6.25,-21.723 0,-10 -2.46,-18.051 -7.34,-24.07 -4.81,-6.047 -11.33,-9.059 -19.53,-9.059 -7.43,0 -12.97,2.809 -16.72,8.442 z m -0.47,25.308 v -6.25 c 0,-3.871 1.09,-7.109 3.28,-9.691 2.19,-2.5 5.04,-3.75 8.59,-3.75 4.14,0 7.39,1.609 9.69,4.851 2.38,3.321 3.59,7.969 3.59,13.899 0,5 -1.09,8.91 -3.28,11.722 -2.11,2.821 -5.11,4.219 -9.06,4.219 -3.75,0 -6.84,-1.398 -9.22,-4.219 -2.42,-2.812 -3.59,-6.402 -3.59,-10.781 z m 113.2,27.66 -24.37,-64.851 c -5.94,-15.5 -14.81,-23.278 -26.57,-23.278 -4.49,0 -8.2,0.469 -11.09,1.411 v 14.839 c 2.5,-1.441 5.2,-2.179 8.12,-2.179 4.69,0 7.97,2.258 9.85,6.707 l 3.28,7.5 -24.53,59.851 h 20.62 l 11.1,-36.558 c 0.7,-2.192 1.29,-4.852 1.72,-7.973 h 0.15 c 0.39,2.262 1.1,4.922 2.03,7.973 l 11.25,36.558 z m 111.33,-54.379 c -8.24,-4.679 -18.44,-7.031 -30.63,-7.031 -13.55,0 -24.21,3.668 -32.03,11.102 -7.73,7.5 -11.56,17.808 -11.56,30.929 0,13.207 4.22,23.989 12.66,32.348 8.51,8.32 19.88,12.5 34.06,12.5 8.94,0 16.8,-1.25 23.59,-3.75 v -17.66 c -6.48,3.75 -14.37,5.633 -23.75,5.633 -7.93,0 -14.37,-2.582 -19.37,-7.66 -4.92,-5.122 -7.35,-11.954 -7.35,-20.473 0,-8.668 2.19,-15.391 6.57,-20.16 4.45,-4.68 10.5,-7.028 18.12,-7.028 4.45,0 8.05,0.668 10.78,2.028 v 16.41 h -16.87 v 15 h 35.78 z m 85.08,0 c -8.24,-4.679 -18.44,-7.031 -30.63,-7.031 -13.55,0 -24.22,3.668 -32.03,11.102 -7.73,7.5 -11.56,17.808 -11.56,30.929 0,13.207 4.22,23.989 12.66,32.348 8.51,8.32 19.88,12.5 34.06,12.5 8.94,0 16.79,-1.25 23.59,-3.75 v -17.66 c -6.48,3.75 -14.37,5.633 -23.75,5.633 -7.93,0 -14.37,-2.582 -19.37,-7.66 -4.93,-5.122 -7.35,-11.954 -7.35,-20.473 0,-8.668 2.19,-15.391 6.56,-20.16 4.46,-4.68 10.51,-7.028 18.13,-7.028 4.45,0 8.05,0.668 10.78,2.028 v 16.41 h -16.87 v 15 h 35.78 z m 12.26,-2.339 v 18.75 c 3.32,-2.93 6.96,-5.122 10.94,-6.563 4.06,-1.367 8.13,-2.027 12.19,-2.027 2.38,0 4.45,0.187 6.25,0.617 1.76,0.391 3.2,0.98 4.37,1.723 1.25,0.82 2.11,1.757 2.66,2.808 0.62,1.02 0.94,2.11 0.94,3.281 0,1.637 -0.47,3.129 -1.41,4.379 -0.94,1.328 -2.26,2.539 -3.91,3.59 -1.56,1.129 -3.51,2.192 -5.78,3.129 -2.18,1.012 -4.61,2.07 -7.18,3.121 -6.57,2.809 -11.49,6.129 -14.69,10 -3.13,3.949 -4.69,8.75 -4.69,14.379 0,4.371 0.82,8.121 2.5,11.25 1.76,3.121 4.14,5.66 7.19,7.652 3.01,2.071 6.48,3.598 10.47,4.528 4.06,1.019 8.32,1.57 12.81,1.57 4.37,0 8.2,-0.277 11.56,-0.777 3.44,-0.551 6.56,-1.371 9.38,-2.5 v -17.5 c -1.49,0.929 -3.05,1.75 -4.69,2.5 -1.56,0.816 -3.24,1.437 -5,1.867 -1.8,0.512 -3.56,0.859 -5.31,1.09 -1.8,0.32 -3.44,0.472 -5,0.472 -2.11,0 -4.03,-0.23 -5.78,-0.621 -1.8,-0.429 -3.29,-1.058 -4.54,-1.879 -1.17,-0.742 -2.1,-1.64 -2.81,-2.652 -0.62,-0.937 -0.94,-2.109 -0.94,-3.437 0,-1.372 0.36,-2.622 1.1,-3.75 0.7,-1.172 1.76,-2.274 3.12,-3.282 1.45,-0.941 3.13,-1.879 5,-2.808 1.96,-0.942 4.22,-1.961 6.72,-2.973 3.32,-1.367 6.29,-2.891 8.91,-4.527 2.69,-1.571 5,-3.364 6.87,-5.321 1.96,-1.992 3.48,-4.293 4.53,-6.871 1.02,-2.5 1.57,-5.468 1.57,-8.91 0,-4.691 -0.94,-8.672 -2.82,-11.871 -1.79,-3.129 -4.18,-5.711 -7.18,-7.66 -3.05,-1.988 -6.57,-3.399 -10.63,-4.219 -4.06,-0.82 -8.36,-1.25 -12.81,-1.25 -4.61,0 -8.99,0.43 -13.13,1.25 -4.18,0.699 -7.77,1.879 -10.78,3.442 z m 130.16,80.777 v -14.688 h -7.03 v -54.679 h 7.03 V 433.32 h -32.97 v 14.692 h 7.03 v 54.679 h -7.03 v 14.688 z m 87.73,-84.059 h -19.06 l -34.69,52.809 c -1.99,3.133 -3.39,5.473 -4.22,7.031 h -0.15 c 0.31,-3.051 0.47,-7.582 0.47,-13.59 v -46.25 h -17.82 v 84.059 h 20.32 l 33.28,-51.25 c 1.56,-2.301 2.97,-4.527 4.22,-6.719 h 0.31 c -0.31,1.879 -0.47,5.668 -0.47,11.41 v 46.559 h 17.81 z m 67.66,68.59 h -29.53 v -20.621 h 27.19 v -15.32 h -27.19 V 433.32 h -18.91 v 84.059 h 48.44 z m 49.61,-70 c -12.11,0 -21.95,3.91 -29.53,11.719 -7.5,7.812 -11.25,18.012 -11.25,30.633 0,13.199 3.83,23.937 11.56,32.179 7.7,8.207 17.85,12.348 30.47,12.348 12.07,0 21.8,-3.988 29.22,-11.879 7.38,-7.808 11.09,-18.121 11.09,-30.941 0,-13.239 -3.87,-23.899 -11.56,-32.028 -7.74,-8.043 -17.74,-12.031 -30,-12.031 z m 0.78,70.629 c -6.68,0 -11.99,-2.5 -15.94,-7.5 -3.86,-5 -5.78,-11.641 -5.78,-19.848 0,-8.363 1.92,-14.961 5.78,-19.839 3.95,-4.813 9.1,-7.192 15.47,-7.192 6.56,0 11.72,2.352 15.47,7.031 3.83,4.77 5.78,11.329 5.78,19.688 0,8.75 -1.87,15.512 -5.62,20.312 -3.68,4.887 -8.71,7.348 -15.16,7.348"
         id="path22"
         style="fill:#ffffff;fill-opacity:1;fill-rule:nonzero;stroke:none"
         inkscape:connector-curvature="0" />
    </g>
  </g>
</svg>
